<?xml version="1.0" standalone="no"?>
<!DOCTYPE svg PUBLIC "-//W3C//DTD SVG 20010904//EN"
 "http://www.w3.org/TR/2001/REC-SVG-20010904/DTD/svg10.dtd">
<svg version="1.0" xmlns="http://www.w3.org/2000/svg"
 width="32.000000pt" height="32.000000pt" viewBox="0 0 32.000000 32.000000"
 preserveAspectRatio="xMidYMid meet">

<g transform="translate(0.000000,32.000000) scale(0.100000,-0.100000)"
fill="#000000" stroke="none">
<path d="M102 303 c-47 -23 -78 -59 -90 -103 -25 -99 45 -191 146 -193 115 -2
189 118 138 224 -32 67 -129 103 -194 72z m66 -105 c3 -15 -4 -18 -37 -18 -34
0 -41 -3 -41 -20 0 -11 5 -20 10 -20 6 0 10 7 10 15 0 10 10 15 31 15 28 0 30
-2 27 -32 -3 -30 -6 -33 -41 -36 -52 -4 -87 19 -87 58 0 39 33 62 85 58 29 -2
41 -8 43 -20z m93 -18 c21 -12 25 -50 7 -68 -17 -17 -54 -15 -72 4 -21 20 -20
30 4 54 23 23 33 24 61 10z"/>
<path d="M220 140 c0 -5 5 -10 10 -10 6 0 10 5 10 10 0 6 -4 10 -10 10 -5 0
-10 -4 -10 -10z"/>
</g>
</svg>
