<?xml version="1.0" standalone="no"?>
<!DOCTYPE svg PUBLIC "-//W3C//DTD SVG 20010904//EN"
 "http://www.w3.org/TR/2001/REC-SVG-20010904/DTD/svg10.dtd">
<svg version="1.0" xmlns="http://www.w3.org/2000/svg"
 width="32.000000pt" height="32.000000pt" viewBox="0 0 32.000000 32.000000"
 preserveAspectRatio="xMidYMid meet">

<defs>
  <linearGradient id="bgGradient" x1="0%" y1="0%" x2="100%" y2="100%">
    <stop offset="0%" style="stop-color:#1e3c72;stop-opacity:1" />
    <stop offset="100%" style="stop-color:#2a5298;stop-opacity:1" />
  </linearGradient>
</defs>

<g transform="translate(0.000000,32.000000) scale(0.100000,-0.100000)">
  <!-- 圆形背景 -->
  <circle cx="160" cy="160" r="160" fill="url(#bgGradient)" stroke="none"/>
  
  <!-- "GO"文字路径 -->
  <!-- 字母 G -->
  <path d="M80 220 c-30 -15 -40 -40 -40 -60 0 -40 30 -70 70 -70 25 0 40 10 50 30 l5 15 -20 0 c-15 0 -20 -5 -20 -15 0 -8 -7 -15 -15 -15 -20 0 -35 15 -35 35 0 20 15 35 35 35 8 0 15 -7 15 -15 0 -10 5 -15 20 -15 l20 0 0 20 c0 25 -25 50 -50 50 -10 0 -25 -7 -35 -15z" fill="white"/>
  
  <!-- 字母 O -->
  <path d="M200 220 c-30 -15 -40 -40 -40 -60 0 -20 10 -45 40 -60 20 -10 40 -10 60 0 30 15 40 40 40 60 0 20 -10 45 -40 60 -20 10 -40 10 -60 0z m40 -40 c15 0 25 -10 25 -25 0 -15 -10 -25 -25 -25 -15 0 -25 10 -25 25 0 15 10 25 25 25z" fill="white"/>
</g>
</svg>
